<svg id="Layer_1" enable-background="new 0 0 66 66" height="512" viewBox="0 0 66 66" width="512" xmlns="http://www.w3.org/2000/svg"><g><g fill="#4ec4a5"><path d="m42.15 12.41c0 5.04-4.06 9.34-5.92 11.05-.52.48-1.31.48-1.82 0-1.86-1.71-5.92-6.01-5.92-11.05s4.06-9.34 5.92-11.05c.52-.48 1.31-.48 1.82 0 1.86 1.7 5.92 6.01 5.92 11.05z"/><path d="m32.36 25.39c2.86 2.86 3 7.6 2.91 9.62-.02.56-.47 1.01-1.03 1.03-2.02.09-6.76-.06-9.62-2.91-2.86-2.86-3-7.6-2.91-9.62.02-.56.47-1.01 1.03-1.03 2.03-.09 6.76.05 9.62 2.91z"/><path d="m38.28 25.39c-2.86 2.86-3 7.6-2.91 9.62.02.56.47 1.01 1.03 1.03 2.02.09 6.76-.06 9.62-2.91 2.86-2.86 3-7.6 2.91-9.62-.02-.56-.47-1.01-1.03-1.03-2.03-.09-6.77.05-9.62 2.91z"/></g><g><g><path d="m43.85 28.42-7.81 6.91v19.07c0 .42-.34.75-.75.75-.42 0-.75-.33-.75-.75v-19.03l-7.84-6.95c-.31-.28-.34-.75-.07-1.06s.75-.34 1.06-.06l6.85 6.05v-17.22l-3.11-3.66c-.26-.32-.23-.79.09-1.06s.79-.23 1.06.09l1.96 2.31v-4.76c0-.42.33-.76.75-.76.41 0 .75.34.75.76v8.95l2.47-2.2c.31-.28.78-.25 1.06.06.27.31.24.78-.07 1.06l-3.46 3.09v13.31l6.81-6.02c.31-.28.79-.25 1.06.06.28.31.25.78-.06 1.06z" fill="#30aa87"/></g></g><g><g><g><g><g><g><g><path d="m64.93 48.06c0 1.15-.63 2.22-1.64 2.79 0 0-18.96 13.66-27.4 14.14-5.48.31-20.22-8.56-20.22-8.56v-15.8s4.74-.13 10.32 0c4.03.1 8.38 2.14 11.73 5.16h7.51c1.82 0 3.29 1.47 3.29 3.28 0 .66-.2 1.27-.53 1.78h.01c.01-.01.01-.01.01-.01l2.03-.93 10.28-4.75c2.13-1.03 4.61.53 4.61 2.9z" fill="#ffbfad"/><path d="m15.67 39.23v18.6c0 1.86-1.51 3.37-3.37 3.37h-7.86c-1.86 0-3.37-1.51-3.37-3.37v-18.6c0-1.86 1.51-3.37 3.37-3.37h7.87c1.85 0 3.36 1.51 3.36 3.37z" fill="#44394a"/></g><circle cx="10.44" cy="56.47" fill="#fff" r="2.07"/></g></g></g></g><g><path d="m50.04 49.91c-.34 1.93-2.03 3.4-4.05 3.4h-7.36c-.42 0-.75-.33-.75-.75 0-.41.33-.75.75-.75h7.36c.81 0 1.54-.37 2.01-.96.01-.01.01-.01.01-.01z" fill="#f7af9e"/></g></g></g></g></svg>