<svg id="Layer_1" enable-background="new 0 0 66 66" height="512" viewBox="0 0 66 66" width="512" xmlns="http://www.w3.org/2000/svg"><g><g><path d="m14.75 55.8v5.86h3.44l1.66-4.02c-1.83-.33-3.54-.96-5.1-1.84z" fill="#ef4a51"/></g><g><path d="m16.94 26.63c-1.47-2.22-3.99-3.68-6.86-3.68v8.71c1.79-2.24 4.15-3.99 6.86-5.03z" fill="#ef4a51"/></g><g><path d="m6.34 36.23c-2.39 0-4.34 1.95-4.34 4.34v2.77c0 2.39 1.95 4.34 4.34 4.34s4.34-1.95 4.34-4.34v-2.77c0-2.39-1.95-4.34-4.34-4.34z" fill="#ef4a51"/></g><g opacity=".3"><path d="m6.34 36.23c-.52 0-1.01.11-1.47.28-.01.11-.03.21-.03.31v2.77c0 2.39 1.95 4.34 4.34 4.34.52 0 1.01-.11 1.47-.28.01-.11.03-.21.03-.31v-2.77c0-2.39-1.95-4.34-4.34-4.34z" fill="#e2e2e2"/></g><g><path d="m35.78 57.85c-.4.03-.8.06-1.2.06h-3.58v3.75h3.44l1.34-3.23z" fill="#ef4a51"/></g><g><ellipse cx="34.21" cy="20.99" fill="#ffab03" rx="8.74" ry="8.74" transform="matrix(.161 -.987 .987 .161 7.992 51.381)"/></g><g opacity=".3"><path d="m34.21 12.26c-1.5 0-2.91.38-4.14 1.04-.37.97-.58 2.02-.58 3.12 0 4.82 3.91 8.74 8.74 8.74 1.5 0 2.91-.38 4.14-1.04.37-.97.58-2.02.58-3.12-.01-4.83-3.92-8.74-8.74-8.74z" fill="#fff"/></g><g><path d="m50.06 4.82 7.28 3.72c.62.32 1.3.48 1.99.48h4.67v11.04h-1.44c-.96 0-1.89.32-2.66.9l-2.19 1.68c-.77.58-1.7.9-2.66.9h-15.09c-1.42 0-2.56-1.19-2.48-2.62.06-1.34 1.27-2.35 2.61-2.35h8.52c.67 0 1.25-.45 1.41-1.1l.79-3.12-6.45-3.04-3.79 2.74-.52.47c-1.13-1.02-2.52-1.76-4.08-2.08l9.42-7.21c1.36-1.02 3.16-1.17 4.67-.41z" fill="#7cb5e8"/></g><g><path d="m42.24 17.55c.14.34.26.68.36 1.03h3.5c1.74-1.68 3.39-3.06 4.69-4.07l.04-.15-2.6-1.22-3.86-1.82-3.78 2.73s-.35.35-.51.49c.91.82 1.65 1.83 2.15 2.98" fill="#4e6575"/></g><g><path d="m36.71 46.41h13.34c.45-1.48.7-3.05.7-4.68 0-6.73-4.11-12.49-9.95-14.93-.02-.01-.03-.02-.05-.03-1.6 1.81-3.94 2.96-6.54 2.96-3.15 0-5.9-1.67-7.44-4.17h-2.99c-1.5-1.6-3.63-2.61-6-2.61v3.38c-4.82 1.55-8.65 5.3-10.32 10.07 1.85.5 3.22 2.18 3.22 4.17v2.77c0 1.95-1.31 3.59-3.08 4.13 2.15 5.66 7.39 9.81 13.67 10.36l1.58 3.83h3.44v-3.75h8.29c.41 0 .8-.03 1.2-.06v-.34c0-.52.42-.93.93-.93h3.74c-.52 0-.93-.42-.93-.93v-3.21c0-.52.42-.93.93-.93h-3.74c-.52 0-.93-.42-.93-.94v-3.21c0-.53.41-.95.93-.95z" fill="#ef4a51"/></g><g opacity=".3"><path d="m40.8 26.8c-.02-.01-.03-.02-.05-.03-1.6 1.81-3.94 2.96-6.54 2.96-3.15 0-5.9-1.67-7.44-4.17h-2.08v15.92c0 4.42 3.58 8 8 8h3.1v-2.13c0-.52.42-.94.93-.94h13.34c.45-1.48.7-3.05.7-4.68-.01-6.73-4.12-12.49-9.96-14.93z" fill="#e2e2e2"/></g><g><path d="m54.39 51.49h-13.94c-.52 0-.93.42-.93.93v3.21c0 .52.42.93.93.93h13.94c.52 0 .93-.42.93-.93v-3.21c.01-.51-.41-.93-.93-.93z" fill="#ffab03"/></g><g><path d="m50.65 46.41h-13.94c-.52 0-.93.42-.93.94v3.21c0 .52.42.94.93.94h13.94c.52 0 .93-.42.93-.94v-3.21c.01-.52-.41-.94-.93-.94z" fill="#ffab03"/></g><g><path d="m50.65 56.58h-13.94c-.52 0-.93.42-.93.93v3.21c0 .52.42.94.93.94h13.94c.52 0 .93-.42.93-.94v-3.21c.01-.52-.41-.93-.93-.93z" fill="#ffab03"/></g><g opacity=".3"><path d="m50.5 46.41h-10.3v1.82c0 .6.49 1.09 1.09 1.09h10.3v-1.82c0-.6-.49-1.09-1.09-1.09z" fill="#fff"/></g><g opacity=".3"><path d="m54.24 51.49h-10.3v1.82c0 .6.49 1.09 1.09 1.09h10.3v-1.82c0-.6-.49-1.09-1.09-1.09z" fill="#fff"/></g><g opacity=".3"><path d="m50.5 56.58h-10.3v1.82c0 .6.49 1.09 1.09 1.09h10.3v-1.82c0-.61-.49-1.09-1.09-1.09z" fill="#fff"/></g><g opacity=".3"><path d="m57.33 8.55-7.28-3.72c-1.22-.63-2.65-.63-3.86-.06 1.06 7.05 7.12 12.46 14.47 12.46 1.15 0 2.27-.15 3.34-.4v-7.8h-4.68c-.69 0-1.37-.17-1.99-.48z" fill="#fff"/></g><g opacity=".3"><path d="m44.37 11.32-2.18 1.57c1.13 2.13 3.23 3.66 5.71 4.03 1.06-.94 2.05-1.76 2.89-2.41l.04-.15-2.6-1.22z" fill="#e2e2e2"/></g><g><path d="m16.45 35.61c0 1.1-.9 2-2 2s-2-.9-2-2 .9-2 2-2 2 .9 2 2z" fill="#7cb5e8"/></g><g opacity=".3"><path d="m14.45 33.61c-.42 0-.8.13-1.13.35-.01.09-.03.18-.03.27 0 1.1.9 2 2 2 .42 0 .8-.13 1.13-.35.01-.09.03-.18.03-.27 0-1.1-.9-2-2-2z" fill="#e2e2e2"/></g><path d="m34.01 20.24c-.48 0-.87-.39-.87-.87s.39-.87.87-.87.87.39.87.87c0 .41.34.75.75.75s.75-.34.75-.75c0-1.04-.68-1.92-1.62-2.24v-.5c0-.41-.34-.75-.75-.75s-.75.34-.75.75v.5c-.94.32-1.62 1.19-1.62 2.24 0 1.31 1.06 2.37 2.37 2.37.48 0 .87.39.87.87s-.39.87-.87.87-.87-.39-.87-.87c0-.41-.34-.75-.75-.75s-.75.34-.75.75c0 1.04.68 1.92 1.62 2.24v.5c0 .41.34.75.75.75s.75-.34.75-.75v-.5c.94-.32 1.62-1.19 1.62-2.24.01-1.3-1.06-2.37-2.37-2.37z" fill="#5e7588"/></g></svg>