<svg id="Layer_1" enable-background="new 0 0 66 66" height="512" viewBox="0 0 66 66" width="512" xmlns="http://www.w3.org/2000/svg"><g><g><path d="m59.54 40.27h-.89c-.41 0-.75-.34-.75-.75s.34-.75.75-.75h.89c1.57 0 2.85-1.28 2.85-2.85 0-.41.34-.75.75-.75s.75.34.75.75c0 2.4-1.95 4.35-4.35 4.35z" fill="#f56356"/></g><path d="m47.44 14.09c0 4.29-2.24 8.06-5.62 10.21h-12.93c-3.38-2.14-5.62-5.91-5.62-10.21 0-6.68 5.4-12.09 12.08-12.09s12.09 5.41 12.09 12.09z" fill="#ffd404"/><path d="m58.65 39.52c0-8.13-5.25-15.23-13.05-19.06-.96 1.54-2.24 2.86-3.78 3.84h-12.93c-2.13-1.35-3.8-3.35-4.75-5.71-.88.25-1.75.53-2.59.85-6.51-3.49-11.81-3.49-11.81-3.49l2.85 9.11c-3.13 3.02-5.29 6.75-6.1 10.87h-3.44c-.52 0-.94.42-.94.94v6.48c0 .52.42.94.94.94h3.71c1.35 5.17 4.88 9.65 9.73 12.76l-1.17 6.95h7.1l.65-3.87c2.9.93 6.04 1.44 9.32 1.44s6.42-.51 9.32-1.44l.65 3.87h7.1l-1.16-6.94c6.29-4.03 10.35-10.39 10.35-17.54z" fill="#f56356"/><g fill="#f56356"><path d="m35.35 8.92c1.22 0 2.21.99 2.21 2.21 0 .41.34.75.75.75s.75-.34.75-.75c0-1.79-1.27-3.29-2.96-3.63v-.86c0-.41-.34-.75-.75-.75s-.75.33-.75.75v.86c-1.69.35-2.96 1.85-2.96 3.63 0 2.05 1.67 3.71 3.71 3.71 1.22 0 2.21.99 2.21 2.21s-.99 2.21-2.21 2.21-2.21-.99-2.21-2.21c0-.41-.34-.75-.75-.75s-.75.34-.75.75c0 1.79 1.27 3.29 2.96 3.63v.86c0 .41.34.75.75.75s.75-.34.75-.75v-.86c1.69-.35 2.96-1.85 2.96-3.63 0-2.05-1.67-3.71-3.71-3.71-1.22 0-2.21-.99-2.21-2.21s.99-2.21 2.21-2.21z"/><path d="m28.86 13.73h-1.28c-.41 0-.75.34-.75.75s.34.75.75.75h1.28c.41 0 .75-.34.75-.75s-.33-.75-.75-.75z"/><path d="m43.12 13.73h-1.28c-.41 0-.75.34-.75.75s.34.75.75.75h1.28c.41 0 .75-.34.75-.75s-.33-.75-.75-.75z"/></g><circle cx="16.56" cy="33" fill="#ececec" r="2"/><path d="m44.61 6.32c-1.42 8.32-8.65 14.67-17.37 14.67-.63 0-1.24-.03-1.85-.1.93 1.36 2.11 2.53 3.5 3.41h12.94c3.38-2.15 5.62-5.92 5.62-10.21-.01-2.96-1.07-5.67-2.84-7.77z" opacity=".1"/><g><path d="m45.01 25.05h-19.32c-.41 0-.75-.34-.75-.75s.34-.75.75-.75h19.32c.41 0 .75.34.75.75s-.34.75-.75.75z" fill="#e3504b"/></g><circle cx="29.13" cy="7.19" fill="#fff" opacity=".5" r="1.8"/><path d="m21.17 52.68c-3.87 0-7.6-.58-11.13-1.64 1.7 2.31 3.88 4.35 6.44 5.99l-1.16 6.97h7.1l.65-3.87c2.9.93 6.04 1.44 9.32 1.44s6.42-.51 9.32-1.44l.65 3.87h7.1l-1.16-6.94c6.28-4.03 10.34-10.38 10.34-17.54 0-3.31-.88-6.45-2.44-9.26-6.11 13.23-19.5 22.42-35.03 22.42z" opacity=".1"/></g></svg>