<svg id="Layer_1" enable-background="new 0 0 66 66" height="512" viewBox="0 0 66 66" width="512" xmlns="http://www.w3.org/2000/svg"><g><circle cx="31.49" cy="38.74" fill="#848792" r="25.26"/><circle cx="31.49" cy="38.74" fill="#e6e9ee" r="20.26"/><path d="m40.3 2h-17.61c-.55 0-1 .45-1 1v3.98c0 .55.45 1 1 1h17.61c.55 0 1-.45 1-1v-3.98c0-.55-.45-1-1-1z" fill="#848792"/><path d="m25.69 5.97c-.55 0-1-.45-1-1v-2.97h-2c-.55 0-1 .45-1 1v3.98c0 .55.45 1 1 1h17.61c.55 0 1-.45 1-1v-1h-15.61z" opacity=".1"/><path d="m59.47 18.82-7.66-7.66c-.39-.39-1.02-.39-1.41 0l-2 2c-.39.39-.39 1.02 0 1.41l7.66 7.66c.39.39 1.02.39 1.41 0l2-2c.39-.39.39-1.02 0-1.41z" fill="#009aff"/><path d="m51.59 23.45 2.84-2.84-4.41-4.41-2.79 2.79c1.63 1.3 3.1 2.8 4.36 4.46z" fill="#5d5b68"/><path d="m31.49 13.48c1.11 0 2.19.08 3.26.22v-5.72h-6.52v5.72c1.07-.14 2.16-.22 3.26-.22z" fill="#5d5b68"/><path d="m35.49 40.74c0 2.21-1.79 4-4 4s-4-1.79-4-4 4-11.01 4-11.01 4 8.8 4 11.01z" fill="#ff4823"/><path d="m33.5 41.74c-2.21 0-4-1.79-4-4 0-1.24 1.25-4.54 2.36-7.2-.22-.5-.36-.8-.36-.8s-4 8.8-4 11.01 1.79 4 4 4c2.05 0 3.72-1.55 3.95-3.53-.58.32-1.24.52-1.95.52z" opacity=".1"/><g fill="#aab2bd"><path d="m31.49 20.49c-.55 0-1 .45-1 1v2.58c0 .55.45 1 1 1s1-.45 1-1v-2.58c0-.56-.44-1-1-1z"/><path d="m31.49 52.42c-.55 0-1 .45-1 1v2.58c0 .55.45 1 1 1s1-.45 1-1v-2.58c0-.55-.44-1-1-1z"/><path d="m23.73 23.3c-.28-.48-.89-.64-1.37-.37-.48.28-.64.89-.37 1.37l1.29 2.23c.19.32.52.5.87.5.17 0 .34-.04.5-.13.48-.28.64-.89.37-1.37z"/><path d="m39.7 50.95c-.28-.48-.89-.64-1.37-.37-.48.28-.64.89-.37 1.37l1.29 2.23c.19.32.52.5.87.5.17 0 .34-.04.5-.13.48-.28.64-.89.37-1.37z"/><path d="m19.28 30.54-2.23-1.29c-.48-.28-1.09-.11-1.37.37s-.11 1.09.37 1.37l2.23 1.29c.16.09.33.13.5.13.35 0 .68-.18.87-.5.27-.49.11-1.1-.37-1.37z"/><path d="m46.94 46.5-2.23-1.29c-.48-.28-1.09-.11-1.37.37s-.11 1.09.37 1.37l2.23 1.29c.16.09.33.13.5.13.35 0 .68-.18.87-.5.27-.48.11-1.09-.37-1.37z"/><path d="m17.81 38.74c0-.55-.45-1-1-1h-2.58c-.55 0-1 .45-1 1s.45 1 1 1h2.58c.56 0 1-.45 1-1z"/><path d="m48.75 37.74h-2.58c-.55 0-1 .45-1 1s.45 1 1 1h2.58c.55 0 1-.45 1-1s-.45-1-1-1z"/><path d="m18.28 45.22-2.23 1.29c-.48.28-.64.89-.37 1.37.19.32.52.5.87.5.17 0 .34-.04.5-.13l2.23-1.29c.48-.28.64-.89.37-1.37-.28-.49-.89-.65-1.37-.37z"/><path d="m44.21 32.4c.17 0 .34-.04.5-.13l2.23-1.29c.48-.28.64-.89.37-1.37-.28-.48-.89-.64-1.37-.37l-2.23 1.29c-.48.28-.64.89-.37 1.37.19.32.52.5.87.5z"/><path d="m24.65 50.59c-.48-.28-1.09-.11-1.37.37l-1.28 2.23c-.28.48-.11 1.09.37 1.37.16.09.33.13.5.13.35 0 .68-.18.87-.5l1.29-2.23c.27-.48.1-1.1-.38-1.37z"/><path d="m40.62 22.93c-.48-.28-1.09-.11-1.37.37l-1.29 2.23c-.28.48-.11 1.09.37 1.37.16.09.33.13.5.13.35 0 .68-.18.87-.5l1.29-2.23c.27-.48.11-1.09-.37-1.37z"/></g><path d="m39.5 54.99c-13.95 0-25.26-11.31-25.26-25.26 0-4.26 1.06-8.27 2.92-11.79-6.6 4.56-10.92 12.18-10.92 20.8 0 13.95 11.3 25.26 25.25 25.26 9.69 0 18.1-5.46 22.34-13.47-4.07 2.81-9.01 4.46-14.33 4.46z" opacity=".1"/></g></svg>